<svg fill="#000000" xmlns="http://www.w3.org/2000/svg" viewBox="0 0 50 50" width="150px" height="150px"><path fill="#78cff5" stroke="#78cff5" stroke-linecap="round" stroke-linejoin="none" stroke-miterlimit="10" stroke-width="0" d="M6.67,13c-3.721,5.399-3.261,14.144-0.414,19.882c0.064,0.14,0.137,0.273,0.207,0.408c0.04,0.088,0.085,0.176,0.134,0.262c0.021,0.048,0.055,0.1,0.082,0.146c0.046,0.094,0.094,0.18,0.143,0.269c0.092,0.155,0.183,0.314,0.274,0.468c0.052,0.086,0.101,0.172,0.159,0.258c0.097,0.166,0.21,0.331,0.311,0.497c0.045,0.071,0.088,0.14,0.137,0.209c0.146,0.225,0.293,0.447,0.454,0.665c0,0.006,0.006,0.013,0.012,0.015c0.024,0.037,0.052,0.072,0.076,0.106c0.137,0.189,0.274,0.374,0.418,0.557c0.049,0.068,0.103,0.135,0.152,0.201c0.131,0.16,0.259,0.32,0.387,0.479C9.251,37.481,9.3,37.541,9.352,37.6c0.171,0.208,0.35,0.414,0.533,0.617c0,0.003,0.006,0.007,0.009,0.012c0.006,0.008,0.012,0.015,0.024,0.023c0.177,0.196,0.356,0.388,0.539,0.579c0.058,0.059,0.116,0.116,0.18,0.177c0.14,0.143,0.28,0.288,0.43,0.429c0.061,0.059,0.122,0.116,0.18,0.172c0.195,0.185,0.39,0.37,0.594,0.546c0.003,0.003,0.006,0.005,0.009,0.008c0.033,0.029,0.07,0.059,0.101,0.088c0.179,0.155,0.36,0.309,0.542,0.462c0.073,0.062,0.146,0.12,0.22,0.18c0.152,0.122,0.305,0.238,0.457,0.356c0.079,0.06,0.159,0.122,0.241,0.185c0.165,0.124,0.335,0.246,0.503,0.366c0.061,0.045,0.122,0.089,0.186,0.131c0.015,0.014,0.033,0.026,0.049,0.039c0.167,0.111,0.326,0.218,0.491,0.328c0.073,0.048,0.143,0.094,0.213,0.141c0.256,0.165,0.512,0.323,0.765,0.477c0.073,0.039,0.146,0.08,0.216,0.122c0.189,0.111,0.381,0.22,0.576,0.325c0.106,0.06,0.213,0.112,0.323,0.167c0.131,0.072,0.268,0.146,0.409,0.219c0.033,0.014,0.067,0.026,0.097,0.043c0.058,0.026,0.113,0.056,0.167,0.083c0.214,0.106,0.433,0.207,0.659,0.308c0.043,0.02,0.088,0.038,0.134,0.062c0.253,0.111,0.506,0.217,0.765,0.32c0.061,0.023,0.122,0.051,0.186,0.072c0.235,0.093,0.478,0.183,0.719,0.271c0.031,0.013,0.058,0.022,0.089,0.032c0.268,0.093,0.533,0.18,0.804,0.265c0.064,0.018,0.128,0.041,0.195,0.058c0.278,0.085,0.545,0.183,0.829,0.237C23.659,45.845,25.394,46,27,46c13.806,0.002,18-11,18-11c-4.391,5.773-12.183,6.878-19.564,5.182c-0.274-0.063-0.545-0.151-0.823-0.234c-0.064-0.018-0.137-0.04-0.201-0.063c-0.268-0.082-0.533-0.17-0.792-0.259c-0.037-0.012-0.076-0.026-0.113-0.041c-0.234-0.081-0.466-0.171-0.698-0.261c-0.064-0.028-0.131-0.051-0.195-0.076c-0.256-0.101-0.509-0.211-0.755-0.32c-0.055-0.02-0.101-0.043-0.153-0.064c-0.216-0.1-0.423-0.199-0.634-0.3c-0.064-0.027-0.122-0.058-0.186-0.091c-0.165-0.079-0.329-0.166-0.49-0.253c-0.113-0.058-0.223-0.112-0.329-0.172c-0.198-0.107-0.396-0.221-0.594-0.332c-0.061-0.042-0.128-0.077-0.198-0.116c-0.256-0.154-0.515-0.312-0.768-0.476c-0.073-0.046-0.14-0.093-0.207-0.14c-0.186-0.118-0.369-0.243-0.548-0.366c-0.058-0.041-0.116-0.085-0.177-0.128c-0.174-0.123-0.344-0.248-0.518-0.376c-0.073-0.058-0.149-0.117-0.229-0.175c-0.155-0.122-0.311-0.242-0.466-0.368c-0.067-0.057-0.137-0.112-0.205-0.168c-0.201-0.163-0.39-0.327-0.582-0.496c-0.018-0.02-0.045-0.037-0.067-0.054c-0.204-0.184-0.408-0.374-0.61-0.562c-0.061-0.058-0.112-0.112-0.173-0.168c-0.146-0.145-0.293-0.286-0.436-0.432c-0.061-0.061-0.116-0.118-0.174-0.177c-0.183-0.186-0.363-0.379-0.539-0.575c-0.009-0.008-0.018-0.017-0.028-0.028c-0.186-0.206-0.366-0.416-0.545-0.628c-0.049-0.057-0.094-0.115-0.143-0.171c-0.131-0.163-0.262-0.328-0.396-0.491c-0.043-0.063-0.092-0.123-0.14-0.185c-0.155-0.202-0.305-0.403-0.454-0.611C7.773,25.181,6.632,13.549,10,9C8.097,10.709,6.67,13,6.67,13z"/><path fill="#78cff5" stroke="##78cff5" stroke-linecap="round" stroke-linejoin="round" stroke-miterlimit="10" stroke-width="0" d="M18.037,9.166c-2.714,3.949-2.563,9.237-0.451,13.416c0.349,0.7,0.748,1.379,1.196,2.025c0.405,0.591,0.852,1.29,1.395,1.765c0.19,0.218,0.395,0.429,0.607,0.642c0.052,0.053,0.104,0.105,0.159,0.16c0.203,0.197,0.408,0.392,0.619,0.581c0.006,0.008,0.018,0.016,0.025,0.024c0.003,0.002,0.006,0.004,0.006,0.004c0.236,0.212,0.475,0.412,0.724,0.608c0.058,0.042,0.11,0.089,0.168,0.131c0.245,0.194,0.497,0.381,0.751,0.564c0.009,0.003,0.015,0.009,0.028,0.014c0.11,0.08,0.227,0.155,0.347,0.233c0.052,0.034,0.107,0.074,0.159,0.107c0.187,0.123,0.371,0.238,0.561,0.351c0.028,0.014,0.055,0.029,0.083,0.043c0.16,0.098,0.328,0.194,0.497,0.281c0.058,0.036,0.116,0.064,0.174,0.096c0.117,0.059,0.233,0.121,0.347,0.182c0.015,0.008,0.037,0.017,0.055,0.025c0.239,0.12,0.481,0.23,0.72,0.34c0.058,0.023,0.108,0.044,0.162,0.067c0.196,0.085,0.395,0.17,0.592,0.246c0.089,0.03,0.172,0.065,0.254,0.095c0.181,0.065,0.365,0.129,0.546,0.19c0.089,0.03,0.168,0.055,0.248,0.081c0.257,0.083,0.518,0.188,0.791,0.231c1.524,0.256,2.921,0.355,4.199,0.327C43.435,31.766,46,23,46,23c-2.909,4.251-8.541,6.38-14.55,4.798c-0.27-0.07-0.533-0.148-0.791-0.234c-0.083-0.022-0.156-0.048-0.236-0.076c-0.187-0.061-0.374-0.124-0.555-0.193c-0.083-0.031-0.168-0.062-0.251-0.095c-0.199-0.079-0.399-0.157-0.592-0.244c-0.058-0.024-0.114-0.044-0.159-0.068c-0.248-0.109-0.494-0.226-0.733-0.342c-0.123-0.064-0.242-0.126-0.365-0.191c-0.073-0.037-0.144-0.073-0.209-0.107c-0.162-0.085-0.313-0.176-0.466-0.267c-0.036-0.02-0.073-0.039-0.11-0.061c-0.187-0.115-0.38-0.23-0.558-0.35c-0.061-0.035-0.114-0.076-0.172-0.113c-0.123-0.079-0.242-0.159-0.368-0.244c-0.254-0.179-0.503-0.368-0.751-0.559c-0.059-0.048-0.114-0.091-0.169-0.138c-2.637-2.105-4.721-4.984-5.708-8.245C18.215,12.884,19.278,8.975,21,6C19.56,7.175,18.037,9.166,18.037,9.166z"/><path fill="#78cff5" stroke="#78cff5" stroke-linecap="round" stroke-linejoin="none" stroke-miterlimit="10" stroke-width="0" d="M28.33,5.644C27.448,6.969,27.016,8.474,27,10c-0.012,1.178,0.225,2.368,0.694,3.496c1.144,2.752,3.483,4.911,6.208,5.933c0.11,0.044,0.221,0.081,0.335,0.121c0.051,0.015,0.099,0.032,0.153,0.049c0.159,0.05,0.317,0.112,0.482,0.144c0.765,0.151,1.473,0.231,2.128,0.251c5.808,0.181,7.507-4.29,7.999-5.01c-1.794,2.639-4.803,3.271-8.496,2.354c-0.29-0.072-0.608-0.179-0.889-0.283c-0.359-0.13-0.716-0.282-1.063-0.449c-0.65-0.323-1.279-0.712-1.86-1.163C29.387,12.878,27.858,7.412,30,4C29.31,4.343,28.33,5.644,28.33,5.644z"/></svg>